<?xml version="1.0" standalone="no"?><!DOCTYPE svg PUBLIC "-//W3C//DTD SVG 1.1//EN" "http://www.w3.org/Graphics/SVG/1.1/DTD/svg11.dtd"><svg t="1543918759345" class="icon" style="" viewBox="0 0 1024 1024" version="1.1" xmlns="http://www.w3.org/2000/svg" p-id="2478" xmlns:xlink="http://www.w3.org/1999/xlink" width="200" height="200"><defs><style type="text/css"></style></defs><path d="M916.381 208.418H107.549c-10.734 0-19.49-8.717-19.49-19.491 0-10.773 8.755-19.491 19.49-19.491h808.832a19.457 19.457 0 0 1 19.49 19.492 19.461 19.461 0 0 1-5.698 13.793 19.468 19.468 0 0 1-13.792 5.697z" p-id="2479"></path><path d="M631.646 200.881c-11.575-56.567-61.896-97.679-119.681-97.679-57.784 0-108.108 41.072-119.604 97.679l-38.219-7.767c15.152-74.686 81.536-128.891 157.82-128.891 76.287 0 142.597 54.205 157.823 128.891l-38.139 7.767z m143.128 758.885H249.157c-30.073 0-56.111-25.697-58.015-57.288l-40.35-675.713c-0.686-10.734 7.538-19.946 18.272-20.595 10.812-0.417 20.022 7.537 20.632 18.313l40.348 675.675c0.686 11.19 9.44 20.629 19.108 20.629h525.62c9.67 0 18.426-9.517 19.184-20.709l40.352-675.598c0.607-10.773 10.126-18.612 20.631-18.31 10.734 0.648 18.883 9.858 18.272 20.593l-40.348 675.675c-2.057 32.207-27.558 57.328-58.089 57.328z" p-id="2480"></path><path d="M364.116 816.638c-10.279 0-18.881-8.034-19.415-18.426L318.742 333.73c-0.607-10.735 7.613-19.948 18.349-20.52 10.506-0.722 19.945 7.65 20.555 18.387l25.962 464.483c0.607 10.732-7.614 19.945-18.349 20.518-0.383 0.04-0.763 0.04-1.143 0.04z m295.698 0c-0.38 0-0.761 0-1.141-0.036-10.734-0.573-18.96-9.789-18.349-20.521l25.961-464.483c0.607-10.735 9.894-19.185 20.556-18.385 10.735 0.571 18.96 9.783 18.351 20.519l-25.964 464.483c-0.614 10.389-9.213 18.423-19.414 18.423z m-147.849 0c-10.733 0-19.488-8.722-19.488-19.49V332.663c0-10.771 8.756-19.49 19.488-19.49a19.453 19.453 0 0 1 19.489 19.49v464.485a19.449 19.449 0 0 1-5.697 13.79 19.463 19.463 0 0 1-13.792 5.7z" p-id="2481"></path></svg>